<svg width="50" height="50" viewBox="0 0 50 50" fill="none" xmlns="http://www.w3.org/2000/svg">
<g id="settings" clip-path="url(#clip0_18_17)">
<path id="Vector" d="M25.0056 0C23.5636 0 22.1486 0.12968 20.7735 0.36405L20.1023 7.47455C18.6801 7.87098 17.334 8.4253 16.075 9.13555L10.58 4.5963C8.25904 6.2393 6.22729 8.25925 4.58449 10.5803L9.13509 16.0753C8.42569 17.3328 7.85909 18.6823 7.46274 20.1026L0.364244 20.7776C0.129779 22.1526 0.000244141 23.5676 0.000244141 25.0226C0.000244141 26.4674 0.128979 27.8769 0.364294 29.2547L7.46329 29.9259C7.85966 31.3462 8.42629 32.6957 9.13564 33.9532L4.59639 39.4482C6.23619 41.7629 8.25444 43.7924 10.5689 45.4322L16.0754 40.8815C17.3352 41.5924 18.6795 42.1573 20.1027 42.5539L20.7739 49.6644C22.149 49.8988 23.564 50.0171 25.006 50.0171C26.4479 50.0171 27.8515 49.8988 29.2267 49.6644L29.8979 42.5539C31.3211 42.1573 32.6653 41.5924 33.9252 40.8815L39.4317 45.4322C41.7463 43.7924 43.7646 41.7628 45.4042 39.4482L40.8649 33.9532C41.5743 32.6957 42.1409 31.3462 42.5373 29.9259L49.6363 29.2547C49.8716 27.8769 50.0003 26.4674 50.0003 25.0226C50.0003 23.5802 49.8708 22.166 49.6363 20.7905L42.5373 20.1193C42.1409 18.699 41.5743 17.3495 40.8649 16.092L45.4155 10.597C43.7728 8.27585 41.741 6.25595 39.42 4.613L33.925 9.15225C32.666 8.442 31.3199 7.8877 29.8977 7.49125L29.2265 0.38075C27.8514 0.14638 26.4477 0.0167 25.0058 0.0167L25.0056 0ZM25.0056 15.4835C30.2636 15.4835 34.5166 19.7475 34.5166 25.0055C34.5166 30.2635 30.2639 34.5275 25.0056 34.5275C19.7476 34.5275 15.4836 30.2635 15.4836 25.0055C15.4836 19.7475 19.7476 15.4835 25.0056 15.4835Z" fill="black"/>
</g>
<defs>
<clipPath id="clip0_18_17">
<rect width="50" height="50" fill="white"/>
</clipPath>
</defs>
</svg>
