<svg width="50" height="50" viewBox="0 0 50 50" fill="none" xmlns="http://www.w3.org/2000/svg">
<g id="Frame 3">
<circle id="Ellipse 1" cx="25" cy="25" r="25" fill="black"/>
<circle id="Ellipse 2" cx="25" cy="16" r="10" fill="white"/>
<path id="Ellipse 4" d="M40 40C40 45.5228 33.2843 50 25 50C16.7157 50 10 45.5228 10 40C10 34.4772 16.7157 30 25 30C33.2843 30 40 34.4772 40 40Z" fill="white"/>
<path id="Ellipse 3" d="M50 25C50 28.283 49.3534 31.5339 48.097 34.5671C46.8406 37.6002 44.9991 40.3562 42.6777 42.6777C40.3562 44.9991 37.6002 46.8406 34.5671 48.097C31.5339 49.3534 28.283 50 25 50C21.7169 50 18.466 49.3534 15.4329 48.097C12.3998 46.8406 9.64378 44.9991 7.32232 42.6777C5.00086 40.3562 3.15937 37.6002 1.903 34.5671C0.646639 31.5339 -2.63522e-06 28.283 0 25L3.75 25C3.75 27.7906 4.29964 30.5538 5.36755 33.132C6.43547 35.7102 8.00073 38.0528 9.97397 40.026C11.9472 41.9993 14.2898 43.5645 16.868 44.6324C19.4461 45.7004 22.2094 46.25 25 46.25C27.7906 46.25 30.5538 45.7004 33.132 44.6324C35.7102 43.5645 38.0528 41.9993 40.026 40.026C41.9993 38.0528 43.5645 35.7102 44.6324 33.132C45.7004 30.5539 46.25 27.7906 46.25 25H50Z" fill="black"/>
</g>
</svg>
