<svg width="20" height="20" viewBox="0 0 20 20" fill="none" xmlns="http://www.w3.org/2000/svg">
<g clip-path="url(#clip0_29_4)">
<path d="M2.2001 6.69899C2.22769 6.69875 2.25528 6.69851 2.28371 6.69827C2.37594 6.69766 2.46813 6.69816 2.56036 6.69866C2.62724 6.69845 2.69412 6.69817 2.761 6.69783C2.94461 6.69711 3.12821 6.69735 3.31183 6.69776C3.50991 6.69804 3.708 6.69741 3.90608 6.6969C4.29407 6.69606 4.68206 6.69606 5.07006 6.69638C5.38538 6.69663 5.70071 6.69658 6.01603 6.69633C6.0609 6.6963 6.10576 6.69626 6.15198 6.69622C6.24312 6.69615 6.33426 6.69608 6.4254 6.69601C7.28022 6.69536 8.13504 6.6957 8.98987 6.69636C9.77206 6.69693 10.5543 6.69636 11.3365 6.69523C12.1395 6.69409 12.9425 6.69366 13.7455 6.69403C13.8363 6.69407 13.9272 6.69411 14.018 6.69415C14.085 6.69417 14.085 6.69417 14.1534 6.6942C14.4683 6.69429 14.7833 6.6939 15.0982 6.69333C15.482 6.69265 15.8658 6.69265 16.2497 6.69354C16.4455 6.69398 16.6413 6.6941 16.8372 6.69338C17.0165 6.69272 17.1958 6.69297 17.3751 6.69393C17.4399 6.69412 17.5048 6.69398 17.5696 6.69348C18.1739 6.68915 18.1739 6.68915 18.3806 6.85239C18.6035 7.09361 18.6165 7.34435 18.6137 7.66114C18.614 7.7256 18.614 7.7256 18.6144 7.79137C18.615 7.93498 18.6145 8.07856 18.6141 8.22216C18.6143 8.32529 18.6145 8.42842 18.6149 8.53155C18.6156 8.7824 18.6154 9.03323 18.615 9.28408C18.6146 9.48811 18.6146 9.69215 18.6147 9.89618C18.6148 9.92526 18.6148 9.95435 18.6148 9.98431C18.6149 10.0434 18.6149 10.1025 18.615 10.1616C18.6154 10.7154 18.6149 11.2692 18.6141 11.823C18.6134 12.2974 18.6135 12.7718 18.6142 13.2462C18.615 13.7978 18.6154 14.3493 18.6149 14.9009C18.6148 14.9598 18.6148 15.0188 18.6147 15.0777C18.6147 15.1212 18.6147 15.1212 18.6147 15.1656C18.6145 15.3691 18.6148 15.5726 18.6151 15.7761C18.6156 16.0245 18.6154 16.2729 18.6146 16.5214C18.6142 16.6479 18.6141 16.7745 18.6146 16.9011C18.6169 17.6377 18.5874 18.266 18.0616 18.8355C17.5639 19.302 16.9944 19.3934 16.3342 19.3899C16.2774 19.39 16.2206 19.3902 16.1638 19.3904C16.0091 19.3909 15.8543 19.3907 15.6996 19.3903C15.5322 19.3901 15.3648 19.3905 15.1974 19.3908C14.87 19.3913 14.5426 19.3912 14.2152 19.3909C13.9491 19.3906 13.6829 19.3906 13.4167 19.3907C13.3788 19.3907 13.3408 19.3907 13.3017 19.3907C13.2246 19.3908 13.1475 19.3908 13.0703 19.3909C12.3481 19.3912 11.6258 19.3908 10.9036 19.3902C10.2845 19.3897 9.66537 19.3897 9.04625 19.3903C8.32644 19.3909 7.60662 19.3912 6.8868 19.3908C6.80999 19.3908 6.73317 19.3907 6.65635 19.3907C6.59967 19.3907 6.59967 19.3907 6.54184 19.3906C6.2761 19.3905 6.01037 19.3907 5.74463 19.391C5.42062 19.3913 5.09662 19.3912 4.77261 19.3906C4.60744 19.3903 4.44228 19.3902 4.27711 19.3906C4.12567 19.3909 3.97424 19.3907 3.8228 19.3901C3.76826 19.39 3.71372 19.39 3.65918 19.3903C3.01212 19.3934 2.47896 19.2561 2.00235 18.8042C1.68916 18.4731 1.48022 18.045 1.47922 17.5842C1.47905 17.547 1.47887 17.5098 1.47869 17.4714C1.4787 17.4308 1.47871 17.3903 1.47871 17.3484C1.4785 17.2834 1.4785 17.2834 1.47828 17.217C1.47785 17.0714 1.4777 16.9259 1.47755 16.7803C1.4773 16.676 1.47704 16.5717 1.47677 16.4675C1.476 16.1545 1.47561 15.8415 1.47526 15.5285C1.47509 15.381 1.47488 15.2336 1.47467 15.0861C1.47401 14.596 1.47344 14.1058 1.47316 13.6156C1.47308 13.4885 1.47301 13.3614 1.47293 13.2342C1.47291 13.2027 1.47289 13.1711 1.47288 13.1385C1.47255 12.6264 1.47156 12.1144 1.47029 11.6023C1.469 11.0764 1.4683 10.5506 1.46817 10.0247C1.46809 9.7295 1.46775 9.4343 1.46675 9.1391C1.4659 8.88777 1.46559 8.63645 1.46597 8.38512C1.46614 8.25692 1.46598 8.12873 1.46531 8.00053C1.46462 7.86147 1.46489 7.72244 1.46541 7.58338C1.46498 7.54297 1.46455 7.50256 1.46411 7.46092C1.46628 7.21873 1.48884 7.06771 1.64071 6.87501C1.83545 6.74332 1.96051 6.69922 2.2001 6.69899ZM6.7579 8.59376C6.63915 8.7996 6.60623 8.98619 6.64071 9.21876C6.70866 9.467 6.84853 9.58748 7.06185 9.72154C7.21677 9.80036 7.35341 9.80967 7.52611 9.81018C7.57123 9.81041 7.61635 9.81063 7.66284 9.81086C7.73687 9.81093 7.73687 9.81093 7.8124 9.81099C7.86502 9.81117 7.91765 9.81137 7.97027 9.81158C8.11313 9.81209 8.25599 9.81234 8.39885 9.81252C8.48818 9.81263 8.57752 9.81279 8.66685 9.81297C8.94658 9.8135 9.22631 9.81388 9.50605 9.81403C9.82853 9.81421 10.151 9.81489 10.4735 9.81602C10.723 9.81687 10.9726 9.81726 11.2221 9.81731C11.371 9.81735 11.5199 9.81758 11.6688 9.81828C11.809 9.81893 11.9492 9.81901 12.0893 9.81867C12.1649 9.81862 12.2406 9.81916 12.3162 9.81971C12.6258 9.81823 12.8478 9.78576 13.1153 9.62159C13.2773 9.45514 13.3673 9.27693 13.379 9.04298C13.3666 8.81706 13.2944 8.64062 13.1287 8.48451C12.9207 8.32152 12.7744 8.27655 12.5099 8.27578C12.4641 8.27555 12.4182 8.27533 12.371 8.2751C12.3209 8.27506 12.2707 8.27501 12.219 8.27497C12.1656 8.27479 12.1121 8.27459 12.0587 8.27438C11.9136 8.27387 11.7684 8.27361 11.6233 8.27344C11.5326 8.27333 11.4419 8.27317 11.3512 8.27299C11.0672 8.27246 10.7831 8.27208 10.4991 8.27193C10.1716 8.27175 9.84407 8.27107 9.51653 8.26994C9.26314 8.26909 9.00975 8.2687 8.75636 8.26865C8.60512 8.26861 8.45388 8.26838 8.30264 8.26768C8.16031 8.26703 8.01799 8.26695 7.87566 8.26729C7.79879 8.26734 7.72192 8.2668 7.64505 8.26625C7.2708 8.26801 7.03204 8.31962 6.7579 8.59376Z" fill="black"/>
<path d="M2.64343 0.854248C2.68214 0.854128 2.68214 0.854128 2.72163 0.854005C2.80824 0.853784 2.89486 0.853841 2.98147 0.853896C3.04415 0.853795 3.10682 0.853677 3.16949 0.853544C3.34184 0.853229 3.51419 0.853159 3.68654 0.85313C3.87238 0.853058 4.05822 0.852763 4.24406 0.8525C4.65051 0.85197 5.05696 0.851734 5.46341 0.851562C5.71724 0.851454 5.97107 0.851289 6.2249 0.851113C6.92776 0.850637 7.63062 0.850234 8.33349 0.850102C8.37847 0.850094 8.42346 0.850085 8.46981 0.850076C8.5149 0.850068 8.56 0.850059 8.60646 0.85005C8.69784 0.850033 8.78922 0.850016 8.8806 0.849998C8.92592 0.849989 8.97125 0.849981 9.01795 0.849972C9.75218 0.849818 10.4864 0.849136 11.2206 0.848226C11.9746 0.847299 12.7285 0.846813 13.4824 0.846767C13.9057 0.846732 14.329 0.846507 14.7522 0.845798C15.1127 0.845196 15.4732 0.844997 15.8336 0.845319C16.0175 0.845471 16.2013 0.845436 16.3851 0.844887C16.5537 0.844388 16.7222 0.844437 16.8907 0.84491C16.9514 0.844986 17.0122 0.844867 17.0729 0.844526C17.7086 0.841179 18.2483 0.950715 18.7256 1.39893C19.0659 1.76541 19.2606 2.22234 19.2641 2.72285C19.2645 2.76666 19.2648 2.81046 19.2652 2.8556C19.2655 2.92604 19.2655 2.92604 19.2657 2.9979C19.2659 3.04649 19.2662 3.09508 19.2664 3.14514C19.2668 3.24781 19.267 3.35048 19.2672 3.45316C19.2673 3.55822 19.2679 3.66327 19.2688 3.76833C19.27 3.92005 19.2704 4.07176 19.2706 4.22349C19.2711 4.27037 19.2716 4.31725 19.2721 4.36555C19.2714 4.62496 19.2665 4.82609 19.0806 5.02518C18.8868 5.17343 18.7827 5.20106 18.5435 5.20056C18.5137 5.20065 18.4839 5.20075 18.4531 5.20084C18.3522 5.2011 18.2512 5.20109 18.1502 5.20107C18.0775 5.2012 18.0048 5.20134 17.9321 5.2015C17.7315 5.2019 17.5309 5.20204 17.3303 5.20214C17.1143 5.2023 16.8983 5.20267 16.6822 5.20301C16.1601 5.20379 15.6379 5.20418 15.1158 5.20452C14.8701 5.2047 14.6244 5.20491 14.3787 5.20511C13.5624 5.20577 12.746 5.20634 11.9296 5.20662C11.8768 5.20664 11.824 5.20666 11.7711 5.20668C11.7318 5.20669 11.7318 5.20669 11.6918 5.20671C11.5591 5.20675 11.4264 5.2068 11.2937 5.20685C11.2673 5.20686 11.241 5.20687 11.2139 5.20688C10.3599 5.20719 9.506 5.2081 8.65207 5.20937C7.74955 5.21071 6.84703 5.21148 5.94451 5.21161C5.45242 5.21169 4.96033 5.21204 4.46823 5.21303C4.04921 5.21388 3.63019 5.2142 3.21117 5.21382C2.99729 5.21364 2.78343 5.21372 2.56955 5.21447C2.37382 5.21516 2.1781 5.21512 1.98237 5.21451C1.9115 5.21442 1.84062 5.21459 1.76975 5.21505C1.67349 5.21564 1.57728 5.21527 1.48102 5.21466C1.43964 5.21525 1.43964 5.21525 1.39742 5.21587C1.18681 5.21293 1.06913 5.15326 0.898409 5.03907C0.695386 4.81665 0.720074 4.50617 0.72278 4.2241C0.722723 4.17614 0.722666 4.12818 0.722608 4.07877C0.722672 3.97761 0.723122 3.87646 0.723934 3.77531C0.725062 3.62152 0.724739 3.46778 0.72423 3.31399C0.724473 3.21534 0.724801 3.11669 0.725221 3.01804C0.725107 2.97254 0.724992 2.92703 0.724874 2.88015C0.731503 2.2977 0.904463 1.80597 1.30765 1.38001C1.68693 1.03008 2.13035 0.854792 2.64343 0.854248Z" fill="black"/>
</g>
<defs>
<clipPath id="clip0_29_4">
<rect width="20" height="20" fill="white"/>
</clipPath>
</defs>
</svg>
