<svg width="50" height="50" viewBox="0 0 50 50" fill="none" xmlns="http://www.w3.org/2000/svg">
<path id="calendar" d="M47.3789 0C48.8342 0 49.9998 1.26441 49.9998 2.82898V2.90849V6.87354V12.5994H41.1962V16.8825H35.2568V12.5994H14.7436V16.8825H8.80411V12.5994H0.000495911V6.87354V2.90849V2.82898C0.000495911 1.26448 1.16597 0 2.62148 0H47.3795H47.3789ZM39.7484 8.48658H36.7046V15.5986H39.7484V8.48658ZM13.2952 8.48658H10.2516V15.5986H13.2952V8.48658ZM50 15.5986V46.7281V47.0917V47.1712C50 48.7357 48.8344 50 47.379 50H2.62098C1.16541 50 0 48.7356 0 47.1712V46.7281V15.5986H3.04365V46.7281H46.955V15.5986H49.9988H50ZM43.6484 19.9953V23.9261H39.4209V19.9953H43.6484ZM36.9796 19.9953V23.9261H32.7521V19.9953H36.9796ZM30.3215 19.9953V23.9261H26.094V19.9953H30.3215ZM23.6527 19.9953V23.9261H19.4252V19.9953H23.6527ZM16.9946 19.9953V23.9261H12.7566V19.9953H16.9946ZM10.3258 19.9953V23.9261H6.09829V19.9953H10.3258ZM43.6489 26.4483V30.3906H39.4214V26.4483H43.6489ZM36.9801 26.4483V30.3906H32.7526V26.4483H36.9801ZM30.322 26.4483V30.3906H26.0945V26.4483H30.322ZM23.6532 26.4483V30.3906H19.4257V26.4483H23.6532ZM16.9951 26.4483V30.3906H12.7571V26.4483H16.9951ZM10.3263 26.4483V30.3906H6.09879V26.4483H10.3263ZM43.6494 32.9014V36.8322H39.4219V32.9014H43.6494ZM36.9806 32.9014V36.8322H32.7531V32.9014H36.9806ZM30.3225 32.9014V36.8322H26.095V32.9014H30.3225ZM23.6537 32.9014V36.8322H19.4262V32.9014H23.6537ZM16.9956 32.9014V36.8322H12.7576V32.9014H16.9956ZM10.3268 32.9014V36.8322H6.09929V32.9014H10.3268ZM43.6499 39.3545V43.2853H39.4224V39.3545H43.6499ZM36.9811 39.3545V43.2853H32.7536V39.3545H36.9811ZM30.323 39.3545V43.2853H26.0955V39.3545H30.323ZM23.6542 39.3545V43.2853H19.4267V39.3545H23.6542ZM16.996 39.3545V43.2853H12.7581V39.3545H16.996ZM10.3273 39.3545V43.2853H6.09979V39.3545H10.3273Z" fill="black"/>
</svg>
