<svg width="50" height="50" viewBox="0 0 50 50" fill="none" xmlns="http://www.w3.org/2000/svg">
<circle cx="25" cy="25" r="25" fill="black"/>
<path d="M36.2432 12.568C36.9218 13.1617 37.5038 13.7799 38.0653 14.4875C38.2867 14.7526 38.524 14.9917 38.7695 15.2344C38.8305 15.1732 38.8914 15.112 38.9542 15.049C39.5274 14.4739 40.1008 13.8991 40.6744 13.3245C40.9693 13.029 41.2642 12.7335 41.5588 12.4377C41.8429 12.1526 42.1272 11.8677 42.4117 11.5829C42.5205 11.474 42.6292 11.365 42.7377 11.2558C42.8893 11.1036 43.0411 10.9517 43.193 10.7998C43.2796 10.7131 43.3661 10.6263 43.4552 10.5369C43.6523 10.3516 43.6523 10.3516 43.75 10.3516C43.75 14.5088 43.75 18.666 43.75 22.9492C39.625 22.9492 35.5 22.9492 31.25 22.9492C31.4278 22.5936 31.5602 22.4198 31.835 22.1467C31.9152 22.0666 31.9953 21.9864 32.0779 21.9039C32.1645 21.8183 32.251 21.7328 32.3402 21.6446C32.4288 21.5563 32.5174 21.468 32.6087 21.377C32.8436 21.1428 33.0791 20.9092 33.3148 20.6757C33.5554 20.4371 33.7954 20.198 34.0355 19.9589C34.5062 19.4903 34.9775 19.0223 35.4492 18.5547C34.6072 16.36 32.2247 14.6469 30.139 13.7051C26.9173 12.3102 23.493 12.2839 20.2332 13.5559C16.7969 15.0043 14.7422 17.5592 13.2812 20.8984C11.7988 20.8984 10.3164 20.8984 8.78906 20.8984C9.87775 16.5437 12.5353 12.9512 16.3784 10.6167C22.7788 6.83485 30.683 7.76194 36.2432 12.568Z" fill="white"/>
<path d="M6.25 27.0508C10.375 27.0508 14.5 27.0508 18.75 27.0508C18.5722 27.4064 18.4398 27.5802 18.165 27.8533C18.0848 27.9334 18.0047 28.0136 17.9221 28.0961C17.8355 28.1817 17.749 28.2673 17.6598 28.3554C17.5712 28.4437 17.4826 28.532 17.3913 28.623C17.1564 28.8572 16.9209 29.0908 16.6852 29.3243C16.4446 29.5629 16.2046 29.802 15.9645 30.0411C15.4938 30.5097 15.0225 30.9777 14.5508 31.4453C15.387 33.6248 17.7406 35.3292 19.812 36.261C23.0104 37.6481 26.3927 37.7247 29.6494 36.485C30.9797 35.9525 32.1224 35.2162 33.2031 34.2773C33.2648 34.2286 33.3265 34.1799 33.39 34.1297C33.9316 33.6982 34.343 33.1619 34.7656 32.6172C34.8323 32.5325 34.8991 32.4477 34.9678 32.3605C35.345 31.8642 35.6672 31.3525 35.9619 30.8044C35.9929 30.7469 36.0239 30.6894 36.0558 30.6302C36.317 30.1293 36.506 29.6334 36.7188 29.1016C38.2012 29.1016 39.6836 29.1016 41.2109 29.1016C41.024 29.8492 40.8461 30.5282 40.5579 31.2317C40.5237 31.3155 40.4896 31.3993 40.4544 31.4857C39.719 33.2561 38.7215 34.8355 37.4023 36.2305C37.292 36.3603 37.1821 36.4905 37.0728 36.6211C34.4499 39.6016 30.2927 41.4263 26.3672 41.6992C24.7546 41.7629 23.1635 41.7462 21.582 41.4062C21.5059 41.39 21.4298 41.3738 21.3513 41.357C17.5146 40.5069 14.1486 38.3289 11.7188 35.2539C11.6334 35.1472 11.6334 35.1472 11.5463 35.0384C11.4258 34.8633 11.4258 34.8633 11.4258 34.668C10.7952 35.2 10.2122 35.7725 9.63173 36.3583C9.53677 36.4536 9.44178 36.549 9.34677 36.6443C9.04869 36.9435 8.751 37.2431 8.45337 37.5427C8.10585 37.8925 7.75818 38.2422 7.4101 38.5915C7.27113 38.7311 7.13247 38.8709 6.99381 39.0108C6.91031 39.0947 6.82681 39.1785 6.74078 39.2648C6.66702 39.3391 6.59326 39.4134 6.51727 39.4899C6.34766 39.6484 6.34766 39.6484 6.25 39.6484C6.25 35.4912 6.25 31.334 6.25 27.0508Z" fill="white"/>
</svg>
